<svg xmlns="http://www.w3.org/2000/svg" version="1.1" x="0px" y="0px" width="450px" height="450px" viewBox="0 0 450 450" enable-background="new 0 0 450 450" xml:space="preserve"><path fill="#FFFFFF" d="M126.488 136.386"/><g><path fill="#282D31" d="M204.75 153.025c1.021 0.063 1.863 0.716 2.806 1.036 1.186 0.247 2.419-0.015 3.605 0.228 0.75 0.354 1.398 0.881 2.09 1.326 1.074 0.663 2.134 1.35 3.237 1.955 0.135-0.174 0.401-0.513 0.537-0.683 0.145 0.208 0.295 0.417 0.445 0.629 1.64-1.456 3.953-1.229 5.971-0.977 0.585 0.242 0.155 1.031 0.261 1.476 -0.518 0.334-1.036 0.673-1.553 1.011 0.634 0.131 1.268 0.257 1.902 0.393 -0.315 0.735-0.668 1.452-1.065 2.148 -0.13-0.15-0.396-0.455-0.532-0.605 -1.156 1.225-1.417-1.127-1.901-1.814 -1.166 0.793-1.606 2.129-1.955 3.421 -0.393-0.92-0.954-1.747-1.762-2.342 -0.29 0.793-0.527 1.665-0.169 2.482 0.604 1.582 1.025 3.223 1.413 4.873 0.707 0.377 1.422 0.755 2.09 1.2 -0.338 1.011-0.822 1.999-1.863 2.434 -0.963-1.205-2.192-2.177-3.644-2.729 0.217 0.707 0.789 1.176 1.326 1.645 -0.116 0.121-0.339 0.363-0.455 0.479 -0.024 0.411-0.054 0.827-0.078 1.238 -0.421-0.421-0.842-0.842-1.253-1.268 -0.794-0.048-1.583 0.073-2.27 0.494 -1.055-0.784-2.042-1.65-2.971-2.574 -0.228 0.881-0.459 1.756-0.702 2.632 -1.055 0.702-1.452 1.805-1.403 3.043 -0.165-0.615-0.339-1.229-0.508-1.844 -0.174 0.417-0.344 0.837-0.513 1.258 -0.329-0.329-0.663-0.663-0.992-0.992 0.658-0.431 1.316-0.861 1.964-1.311 -0.687-0.803-1.466-0.305-2.032 0.31 -0.067-0.271-0.203-0.808-0.271-1.079 -0.866 0.343-1.732 0.692-2.599 1.036 -0.14-0.155-0.421-0.465-0.562-0.619 -0.058 0.319-0.174 0.953-0.232 1.268 -0.542-0.039-1.084-0.083-1.626-0.121 0.029-0.387 0.063-0.77 0.097-1.152 -0.377 0.063-0.755 0.121-1.132 0.184 -0.077-0.319-0.232-0.958-0.31-1.282 -0.822 0.561-1.568 1.229-2.216 1.984 -0.958-0.721-1.974-1.37-3.014-1.969 -0.576 0.522-1.099 1.103-1.568 1.722 -0.9-1.374-2.415-2.859-4.205-2.187 -0.13 0.696-0.377 1.364-0.9 1.868 -0.145-0.141-0.426-0.421-0.566-0.557 -0.533-0.542-1.36-1.34-2.11-0.667 -0.542-0.32-1.069-0.663-1.592-1.017 -0.029 0.232-0.078 0.707-0.106 0.944 -0.716-0.489-1.437-0.963-2.173-1.413 0.01-0.276 0.015-0.551 0.024-0.823 -0.3-0.459-0.373-0.997-0.445-1.524 -0.343-0.266-0.692-0.527-1.04-0.784 0.058-0.131 0.165-0.393 0.223-0.523 0.154-0.343 0.464-1.026 0.614-1.364 0.494 0.532 0.987 1.074 1.476 1.611 0.199-0.455 0.392-0.915 0.585-1.37 0.33 0.203 0.658 0.411 0.987 0.615 0.537-0.436 1.074-0.871 1.621-1.302 0.102 0.62 0.198 1.244 0.29 1.863 0.3-0.75 0.62-1.495 1.002-2.211 -0.344-0.499-0.692-0.997-1.036-1.495 -0.276 0.387-0.547 0.769-0.818 1.151 -0.856-1.64-2.748-0.774-4.171-0.639 -0.634 0.058-1.181 0.377-1.723 0.672 -0.348-0.213-0.692-0.426-1.036-0.639 -0.43 0.663-0.871 1.321-1.326 1.964 0.029-0.45 0.063-0.9 0.102-1.35 -1.104-0.072-2.395-0.232-2.478 1.259 0.919 0.222 1.839 0.445 2.768 0.643 -1.263 1.263-2.971 0.489-4.5 0.397 -1.123-0.024-1.345 1.326-1.742 2.11 -0.89 0.048-1.785 0.092-2.676 0.135 -0.266-0.978-0.556-1.955-1.025-2.855 -0.789-0.692-1.96 0.373-1.979 1.253 0.382-0.029 0.764-0.053 1.151-0.078 0.416 0.518 0.842 1.031 1.273 1.544 -0.417 0.614-0.987 1.093-1.617 1.49 -0.934-0.828-0.759-2.579-2.095-2.894 0.058 0.542 0.121 1.08 0.188 1.617 -0.527-0.528-1.06-1.05-1.592-1.578 0.261-0.421 0.527-0.842 0.789-1.263 -0.784 0.015-1.8 0.392-2.071-0.692 -0.324 0.813-0.629 1.631-0.905 2.458 -0.368-0.125-0.736-0.251-1.099-0.377 -0.005-1.5-0.078-3 0.01-4.5 0.677 0.015 1.287 0.184 1.563 0.866 0.256-0.155 0.518-0.305 0.774-0.455 0.111-0.604 0.223-1.209 0.329-1.814 1.384-0.024 2.758-0.102 4.132-0.218 2.032-0.005 4.055-0.15 6.083-0.097 3.876 0.067 7.775-1.002 11.627-0.426 1.96 0.905 4.181 0.435 6.262 0.421 1.244-0.228 2.957 0.256 3.644-1.132 2.26-0.866 4.693-0.982 6.968-1.834 1.597-0.479 3.474 0.034 4.877-1.041C204.47 154.831 204.281 153.742 204.75 153.025zM208.355 157.337c0.131 0.412 0.262 0.828 0.392 1.239 -0.261 0.397-0.522 0.793-0.779 1.19 1.171 0.198 2.24-0.363 3.242-0.886 -0.75-0.546-1.379-1.224-1.8-2.056C209.144 156.955 208.617 157.207 208.355 157.337z"/><path fill="#6F787B" d="M228.223 185.155c0.175-0.406 0.344-0.818 0.523-1.229 0.082 0.919 0.164 1.844 0.232 2.768 0.518-0.61 1.068-1.195 1.654-1.747 0.963 0.223 1.955 0.256 2.947 0.203 0.643 0.861 1.271 1.742 1.993 2.545 -0.842-0.014-1.649 0.204-2.448 0.436l-0.262 0.063c-0.953-0.29-1.911-0.561-2.874-0.803 -0.126 0.199-0.382 0.6-0.509 0.803 -0.353-0.314-0.705-0.624-1.059-0.934 -0.576 0.382-1.152 0.77-1.723 1.156 -0.189-0.377-0.562-1.132-0.746-1.51 0.087-0.537 0.16-1.079 0.222-1.621 0.185 0.488 0.368 0.972 0.557 1.461 0.291-0.508 0.576-1.016 0.871-1.524C227.758 185.203 228.068 185.174 228.223 185.155z"/><path fill="#495154" d="M213.252 155.614c6.189 0.141 12.392 0.043 18.566 0.581 1.873 0.135 3.755-0.043 5.627-0.165 0.6 0.75 1.156 1.601 2.076 1.998 1.485 1.873 1.432 4.253 0.987 6.474 0.392 0.3 0.778 0.605 1.181 0.895 -0.412 0.426-0.818 0.862-1.205 1.312 -0.208-0.228-0.619-0.687-0.828-0.915 -0.41-0.004-0.822-0.015-1.232-0.019 -0.324-0.687-0.648-1.37-1.008-2.033 -0.135 0.818 0.185 1.597 0.311 2.396 -0.271 0.44-0.609 0.837-0.92 1.249 -0.092-0.431-0.179-0.862-0.261-1.292 -0.28 0.266-0.557 0.532-0.833 0.793 -0.261-0.73-0.521-1.461-0.778-2.197 -0.136 0.169-0.411 0.508-0.547 0.677 -0.169-0.503-0.334-1.001-0.493-1.505 0.469-0.223 0.938-0.44 1.412-0.663 -0.803-0.624-1.418-1.408-0.74-2.375 0.663 0.044 1.331 0.034 1.994-0.053 -0.935-1.162-1.684-2.458-2.139-3.886 -0.127 0.005-0.378 0.015-0.504 0.02 -1.418 0.106-2.869 0.121-4.205 0.663 -0.436-0.252-0.871-0.503-1.296-0.76 -0.068 0.401-0.126 0.798-0.189 1.2 -1.378-0.886-3.082-0.503-4.524 0.004 -0.106-0.445 0.324-1.233-0.261-1.476 -2.018-0.251-4.331-0.479-5.971 0.977 -0.15-0.212-0.3-0.42-0.445-0.629 -0.136 0.169-0.402 0.508-0.537 0.683C215.386 156.964 214.326 156.277 213.252 155.614z"/><path fill="#41484E" d="M208.355 157.337c0.262-0.13 0.789-0.382 1.055-0.513 0.421 0.832 1.05 1.51 1.8 2.056 -1.001 0.523-2.071 1.084-3.242 0.886 0.256-0.397 0.518-0.793 0.779-1.19C208.617 158.165 208.486 157.749 208.355 157.337z"/><path fill="#343A3F" d="M228.417 156.81c0.425 0.256 0.86 0.508 1.296 0.76 1.336-0.542 2.787-0.557 4.205-0.663 -0.067 0.716-0.15 1.428-0.227 2.144 -0.581-0.3-1.166-0.585-1.762-0.852 0.213 0.968 0.449 1.931 0.691 2.894 -0.198 0.261-0.392 0.522-0.585 0.789 0.175 0.339 0.339 0.683 0.372 1.069 -0.696-0.034-1.393-0.077-2.086-0.111 0.445-1.437 0.939-2.956 0.359-4.437 -0.514 0.522-1.026 1.055-1.529 1.583 0.063 0.396 0.135 0.793 0.203 1.19 -0.479 0.29-0.963 0.581-1.447 0.866 -0.813-0.47-1.717-0.566-2.632-0.421 -0.111-0.382-0.223-0.764-0.329-1.142 -0.295 0.528-0.6 1.055-0.822 1.616 0.638 0.547 1.509 0.189 2.26 0.189 0.193 0.44 0.372 0.89 0.537 1.345 -0.063 0.919-1.017 1.181-1.684 1.553 0.382 0.503 0.934 0.808 1.485 1.094 -0.193 0.188-0.585 0.561-0.779 0.75 0.711 0.199 1.515 0.145 2.177 0.484 -0.023 0.276-0.063 0.833-0.082 1.108 -0.218 0.14-0.658 0.421-0.881 0.561 -0.479-0.058-0.957-0.121-1.432-0.179 0.446 0.697 0.885 1.398 1.317 2.109 -0.537-0.237-1.07-0.474-1.602-0.716 -0.15-0.232-0.455-0.696-0.605-0.929l-0.348-0.203c-0.634 0.058-1.268 0.111-1.897 0.169 -0.179-0.203-0.537-0.609-0.711-0.817 -0.271 0.271-0.542 0.542-0.808 0.813 -0.228-0.16-0.672-0.484-0.9-0.644 -0.668-0.445-1.384-0.822-2.09-1.2 -0.387-1.65-0.808-3.291-1.413-4.873 -0.358-0.818-0.121-1.689 0.169-2.482 0.808 0.595 1.369 1.422 1.762 2.342 0.348-1.292 0.789-2.628 1.955-3.421 0.484 0.687 0.745 3.039 1.901 1.814 0.136 0.15 0.402 0.455 0.532 0.605 0.397-0.696 0.75-1.413 1.065-2.148 -0.634-0.136-1.268-0.262-1.902-0.393 0.518-0.338 1.036-0.677 1.553-1.011 1.442-0.508 3.146-0.89 4.524-0.004C228.291 157.608 228.349 157.211 228.417 156.81z"/><path fill="#3E464A" d="M233.918 156.906c0.126-0.005 0.377-0.014 0.504-0.02 0.455 1.428 1.204 2.724 2.139 3.886 -0.663 0.087-1.331 0.097-1.994 0.053 -0.678 0.968-0.063 1.751 0.74 2.375 -0.474 0.223-0.943 0.44-1.412 0.663 0.159 0.503 0.324 1.002 0.493 1.505 0.136-0.169 0.411-0.508 0.547-0.677 0.257 0.735 0.518 1.466 0.778 2.197 0.276-0.262 0.553-0.527 0.833-0.793 0.082 0.43 0.169 0.861 0.261 1.292 0.311-0.412 0.648-0.808 0.92-1.249 -0.126-0.798-0.445-1.577-0.311-2.396 0.359 0.663 0.684 1.346 1.008 2.033 0.41 0.004 0.822 0.015 1.232 0.019 0.209 0.228 0.62 0.687 0.828 0.915 -0.141 0.179-0.426 0.542-0.566 0.721 -0.455-0.3-0.919-0.576-1.379-0.856 0.116 0.537 0.237 1.074 0.354 1.616 -0.543 0.165-1.079 0.329-1.616 0.498 -0.146-0.179-0.44-0.546-0.585-0.726 -0.175 0.193-0.519 0.585-0.692 0.779 -1.099-0.097-2.173-0.372-3.067-1.035 -0.248 0.551-0.489 1.103-0.731 1.66 -0.261-0.102-0.778-0.295-1.04-0.397 0.295-0.407 0.59-0.813 0.886-1.219 -0.179-0.199-0.362-0.392-0.537-0.59 -0.417 0.474-0.827 0.948-1.239 1.422 -0.077-0.667-0.154-1.34-0.227-2.008 -0.072 0.126-0.219 0.387-0.291 0.518 0.068 0.973-0.648 2.003-1.713 1.524 0.02-0.276 0.059-0.833 0.082-1.108 -0.662-0.339-1.466-0.285-2.177-0.484 0.194-0.188 0.585-0.561 0.779-0.75 -0.551-0.286-1.103-0.591-1.485-1.094 0.667-0.373 1.621-0.634 1.684-1.553 -0.165-0.455-0.344-0.905-0.537-1.345 -0.75 0-1.622 0.358-2.26-0.189 0.222-0.561 0.527-1.088 0.822-1.616 0.106 0.378 0.218 0.76 0.329 1.142 0.915-0.145 1.819-0.048 2.632 0.421 0.484-0.286 0.969-0.576 1.447-0.866 -0.068-0.397-0.141-0.794-0.203-1.19 0.503-0.528 1.016-1.06 1.529-1.583 0.58 1.481 0.086 3-0.359 4.437 0.693 0.034 1.39 0.078 2.086 0.111 -0.033-0.387-0.197-0.73-0.372-1.069 0.193-0.266 0.387-0.527 0.585-0.789 -0.242-0.963-0.479-1.926-0.691-2.894 0.596 0.266 1.181 0.552 1.762 0.852C233.768 158.334 233.851 157.623 233.918 156.906z"/><path fill="#C5C6C8" d="M181.936 158.919c1.646-1.302 3.76-0.344 5.638-0.542 1.417-0.179 2.84-0.281 4.268-0.169 -0.687 1.389-2.4 0.905-3.644 1.132C186.117 159.354 183.896 159.824 181.936 158.919z"/><path fill="#6C7577" d="M239.521 158.029c1.998 0.876 3.367 2.686 4.611 4.403 0.963 1.277 0.943 2.928 1.311 4.413 -1.417 0.073-2.622-0.702-3.754-1.447 -0.402-0.29-0.789-0.595-1.181-0.895C240.953 162.282 241.007 159.902 239.521 158.029z"/><path fill="#42484C" d="M156.208 159.873c0.89-0.039 1.761-0.218 2.501-0.746 1.844 0.034 3.707-0.106 5.516 0.315 -1.374 0.116-2.749 0.193-4.132 0.218 -0.106 0.605-0.218 1.21-0.329 1.814 -0.256 0.15-0.518 0.3-0.774 0.455 -0.276-0.682-0.886-0.852-1.563-0.866 -0.087 1.5-0.015 3-0.01 4.5 -0.644 0.068-1.287 0.15-1.926 0.237 -0.615 0.915-1.282 1.791-1.94 2.671 -0.179-2.028 0.702-3.939 0.547-5.961C154.926 161.735 155.623 160.84 156.208 159.873z"/><path fill="#3F484C" d="M179.008 161.745c1.423-0.136 3.314-1.001 4.171 0.639 0.271-0.382 0.542-0.765 0.818-1.151 0.344 0.498 0.692 0.997 1.036 1.495 -0.382 0.716-0.702 1.461-1.002 2.211 -0.092-0.619-0.188-1.243-0.29-1.863 -0.547 0.431-1.084 0.866-1.621 1.302 -0.329-0.204-0.658-0.412-0.987-0.615 -0.193 0.455-0.387 0.915-0.585 1.37 -0.488-0.537-0.982-1.079-1.476-1.611 -0.15 0.338-0.46 1.021-0.614 1.364 -0.924-0.135-1.5-0.847-2.023-1.543 -0.338 0.354-0.716 0.673-1.118 0.953 -0.929-0.198-1.849-0.421-2.768-0.643 0.083-1.491 1.374-1.331 2.478-1.259 -0.039 0.45-0.073 0.9-0.102 1.35 0.455-0.644 0.896-1.301 1.326-1.964 0.344 0.213 0.688 0.426 1.036 0.639C177.828 162.123 178.375 161.803 179.008 161.745z"/><path fill="#131418" d="M176.434 163.342c0.522 0.697 1.099 1.408 2.023 1.543 -0.058 0.13-0.165 0.392-0.223 0.523 0.348 0.256 0.697 0.518 1.04 0.784 0.073 0.527 0.146 1.064 0.445 1.524 -0.01 0.271-0.015 0.547-0.024 0.823 0.736 0.45 1.457 0.924 2.173 1.413 0.029-0.237 0.078-0.711 0.106-0.944 0.522 0.354 1.05 0.697 1.592 1.017 0.75-0.673 1.577 0.125 2.11 0.667 -0.46 0.711-0.663 1.529-0.61 2.376 -0.358-0.208-0.716-0.417-1.074-0.625 -0.474 0.692-0.91 1.413-1.331 2.139 -0.677 0.798-1.655 1.19-2.623 1.495 -0.078 0.683-0.155 1.37-0.228 2.052 -0.16-0.131-0.479-0.397-0.634-0.527 0.087-0.542 0.174-1.084 0.261-1.626 -0.716-0.377-1.422-0.764-2.12-1.176 0.063 0.431 0.126 0.856 0.189 1.287 -0.769-0.063-1.529-0.261-2.134-0.77 0.363-0.319 0.721-0.639 1.084-0.953 -0.373-0.14-0.745-0.281-1.118-0.421 -0.078 0.169-0.228 0.508-0.3 0.678 -0.861-0.484-1.829-0.644-2.806-0.615 0.092-0.387 0.184-0.77 0.276-1.156 -0.218 0.004-0.654 0.014-0.871 0.019 -0.087 0.585-0.179 1.167-0.276 1.747 -0.397-0.687-0.745-1.403-1.2-2.052 -0.779 0.043-1.543 0.193-2.313 0.276 0.208-0.668 0.412-1.331 0.615-1.999 -0.16-0.198-0.479-0.6-0.639-0.803 -0.266 0.208-0.532 0.416-0.798 0.629 -0.276-1.234-0.455-2.482-0.629-3.73 0.891-0.043 1.786-0.087 2.676-0.135 0.397-0.784 0.62-2.134 1.742-2.11 1.529 0.092 3.237 0.866 4.5-0.397C175.718 164.015 176.096 163.695 176.434 163.342z"/><path fill="#1B1E23" d="M158.517 165.94c0.275-0.827 0.581-1.645 0.905-2.458 0.271 1.084 1.287 0.707 2.071 0.692 -0.261 0.421-0.527 0.842-0.789 1.263 0.532 0.527 1.064 1.05 1.592 1.578 -0.067-0.537-0.131-1.075-0.188-1.617 1.335 0.315 1.161 2.066 2.095 2.894 0.629-0.397 1.2-0.876 1.617-1.49 -0.431-0.513-0.857-1.026-1.273-1.544 -0.387 0.024-0.77 0.049-1.151 0.078 0.019-0.881 1.19-1.945 1.979-1.253 0.469 0.9 0.759 1.877 1.025 2.855 0.174 1.249 0.354 2.497 0.629 3.73 0.266-0.213 0.532-0.421 0.798-0.629 0.16 0.203 0.479 0.605 0.639 0.803 -0.203 0.668-0.406 1.331-0.615 1.999l-0.411-0.169c-0.067-0.314-0.198-0.944-0.261-1.258 -0.135 0.412-0.276 0.823-0.411 1.234 -0.392-0.015-0.779-0.034-1.171-0.049 -0.499 0.344-0.997 0.687-1.5 1.026 -0.759-0.464-1.577-0.561-2.366-0.111 -0.194-0.218-0.581-0.648-0.774-0.861 -0.658 0.653-0.895 1.543-1.089 2.419 -0.121-0.179-0.363-0.532-0.484-0.711 -0.242 0.29-0.489 0.581-0.73 0.875 0.45 0.542 0.9 1.079 1.355 1.621 -0.261 0.275-0.518 0.556-0.774 0.832 0.625 0.184 1.089 0.595 1.35 1.19 -0.203 0.247-0.609 0.735-0.818 0.978 0.856 0.338 1.742 0.609 2.637 0.827 0.087 0.276 0.271 0.828 0.363 1.104 0.242-0.179 0.484-0.358 0.726-0.542 0.697 0.019 1.394 0.039 2.091 0.063 -0.203 0.803-0.692 1.461-1.355 1.959 0.213 0.634 0.431 1.268 0.644 1.897 -0.363 0.324-0.726 0.644-1.084 0.963 -0.329-0.169-0.658-0.344-0.982-0.513 -0.343 0.242-0.682 0.484-1.026 0.731 -0.102-0.808-0.208-1.611-0.309-2.415 -0.286 0.677-0.576 1.35-0.866 2.027 -0.116-0.484-0.237-0.968-0.354-1.447 -0.319-0.174-0.634-0.344-0.953-0.518 -0.034 0.982-0.13 1.964-0.339 2.927 -0.29-1.505-0.542-3.02-0.962-4.495 -0.334 1.079-0.585 2.177-0.992 3.232 -0.155 0.029-0.455 0.078-0.61 0.107 -0.145-1.331 0.049-2.667 0.053-3.997 0.218-0.024 0.653-0.082 0.871-0.111 -0.527-0.489-1.19-0.784-1.843-1.06 0.188-1.031 0.614-1.994 1.122-2.903 -0.518 0.111-1.031 0.228-1.548 0.339 0.058-0.557 0.116-1.113 0.169-1.665 -0.348-0.121-1.045-0.368-1.398-0.489 1.167-0.774 2.584-0.585 3.881-0.324 0.068-0.121 0.208-0.358 0.276-0.479 -1.162-0.576 0.184-1.447 0.469-2.144 0.14 0.174 0.431 0.532 0.571 0.707 0.508-0.464 0.915-1.011 1.171-1.65 -0.924-0.852-2.008-1.713-3.33-1.205 0.237 0.339 0.475 0.673 0.711 1.011 -0.585 0.02-1.176 0.034-1.766 0.053 -0.063-0.16-0.193-0.484-0.256-0.648 0.924-1.118 0.503-2.623 0.532-3.943 0.522-0.503 0.982-1.064 1.34-1.693C157.781 165.689 158.148 165.814 158.517 165.94z"/><path fill="#252A2F" d="M155.492 165.8c0.639-0.087 1.282-0.169 1.926-0.237 -0.358 0.629-0.818 1.19-1.34 1.693 -0.029 1.321 0.392 2.826-0.532 3.943 0.063 0.165 0.194 0.489 0.256 0.648 0.59-0.02 1.181-0.034 1.766-0.053 -0.237-0.338-0.474-0.672-0.711-1.011 1.321-0.508 2.405 0.354 3.33 1.205 -0.256 0.639-0.663 1.186-1.171 1.65 -0.14-0.174-0.431-0.532-0.571-0.707 -0.286 0.697-1.631 1.568-0.469 2.144 -0.068 0.121-0.208 0.358-0.276 0.479 -1.297-0.261-2.714-0.45-3.881 0.324 0.354 0.121 1.05 0.368 1.398 0.489 -0.053 0.552-0.111 1.108-0.169 1.665 0.518-0.111 1.031-0.228 1.548-0.339 -0.508 0.91-0.934 1.873-1.122 2.903 0.653 0.276 1.316 0.571 1.843 1.06 -0.218 0.029-0.653 0.087-0.871 0.111 -0.004 1.331-0.198 2.666-0.053 3.997 0.155-0.029 0.455-0.078 0.61-0.107 0.407-1.055 0.658-2.153 0.992-3.232 0.42 1.476 0.672 2.99 0.962 4.495 0.208-0.963 0.305-1.945 0.339-2.927 0.319 0.174 0.634 0.343 0.953 0.518 0.116 0.479 0.237 0.963 0.354 1.447 0.29-0.677 0.581-1.35 0.866-2.027 0.102 0.803 0.208 1.606 0.309 2.415 0.344-0.247 0.683-0.489 1.026-0.731 0.324 0.169 0.654 0.344 0.982 0.513 0.358-0.319 0.721-0.639 1.084-0.963 -0.213-0.629-0.431-1.263-0.644-1.897 0.663-0.498 1.152-1.156 1.355-1.959 -0.697-0.024-1.394-0.044-2.091-0.063 -0.242 0.184-0.483 0.363-0.726 0.542 -0.092-0.276-0.275-0.828-0.363-1.104 -0.895-0.218-1.781-0.489-2.637-0.827 0.208-0.242 0.615-0.731 0.818-0.978 -0.261-0.595-0.726-1.006-1.35-1.19 0.257-0.276 0.513-0.557 0.774-0.832 -0.455-0.542-0.905-1.079-1.355-1.621 0.242-0.295 0.489-0.585 0.73-0.875 0.121 0.179 0.363 0.532 0.484 0.711 0.194-0.876 0.431-1.766 1.089-2.419 0.193 0.213 0.581 0.644 0.774 0.861 0.789-0.45 1.606-0.353 2.366 0.111 0.503-0.339 1.002-0.682 1.5-1.026 0.392 0.015 0.779 0.034 1.171 0.049 0.135-0.412 0.276-0.823 0.411-1.234 0.063 0.314 0.194 0.944 0.261 1.258l0.411 0.169c0.77-0.083 1.534-0.232 2.313-0.276 0.455 0.648 0.803 1.365 1.2 2.052 0.097-0.581 0.188-1.162 0.276-1.747 0.217-0.005 0.653-0.015 0.871-0.019 -0.092 0.387-0.184 0.769-0.276 1.156 0.977-0.029 1.945 0.131 2.806 0.615 0.073-0.17 0.223-0.508 0.3-0.678 0.373 0.14 0.745 0.281 1.118 0.421 -0.363 0.314-0.721 0.634-1.084 0.953 0.605 0.508 1.365 0.707 2.134 0.77 -0.063-0.431-0.126-0.856-0.189-1.287 0.697 0.412 1.404 0.798 2.12 1.176 -0.087 0.542-0.174 1.084-0.261 1.626 0.155 0.13 0.474 0.396 0.634 0.527 0.073-0.682 0.15-1.369 0.228-2.052 0.968-0.305 1.945-0.697 2.623-1.495 0.334 0.813 0.648 1.631 0.948 2.458 0.223-0.736 0.455-1.466 0.697-2.197 0.832 0.242 1.659 0.798 2.549 0.624 0.475-0.314 0.872-0.726 1.288-1.108 -0.145 0.455-0.286 0.91-0.421 1.369 0.61 0.421 1.225 0.842 1.834 1.263 0.106-0.576 0.208-1.156 0.315-1.732 0.091 0.29 0.281 0.875 0.372 1.166 0.373-0.034 0.745-0.068 1.118-0.102 0.135 0.542 0.276 1.084 0.416 1.63 0.155 0.136 0.464 0.412 0.619 0.547 -0.14-0.929-0.247-1.863-0.339-2.797 0.393 0.392 0.784 0.789 1.181 1.181 0.721 0.015 1.495-0.048 2.09 0.45 0.513-0.624 0.905-1.335 1.146-2.105 0.833-0.499 1.646-1.016 2.444-1.558 0.561 0.435 1.118 0.88 1.674 1.335 0.116-0.401 0.237-0.803 0.358-1.2 0.193 0.459 0.387 0.924 0.585 1.389 0.735-0.779 1.011-1.805 0.997-2.855 0.397 0.76 0.745 1.553 1.282 2.23 0.842 0.528 1.747 0.949 2.598 1.466 0.078-0.295 0.233-0.89 0.31-1.186 0.324 0.194 0.648 0.387 0.973 0.585 0.223-0.188 0.445-0.373 0.667-0.556 0.261 0.595 0.523 1.19 0.789 1.785 0.121-0.348 0.358-1.045 0.479-1.389 0.155 0.169 0.464 0.508 0.619 0.682 0.494-0.348 0.968-0.74 1.52-1.006 0.881-0.082 1.703 0.349 2.536 0.571 0.242-0.765 0.503-1.524 0.784-2.274 0.092 0.314 0.271 0.949 0.358 1.263 0.833-0.503 1.751-0.813 2.734-0.779 0.058 0.89-0.102 1.766-0.339 2.623 0.146 0.039 0.44 0.116 0.585 0.16 0.291 0.44 0.576 0.891 0.866 1.335 0.063-0.546 0.131-1.088 0.194-1.63 0.271-0.092 0.542-0.189 0.818-0.276 0.464 0.203 0.997 0.963 1.534 0.469 0.91-0.59 1.887-1.079 3.005-0.939 -0.116-0.667-0.232-1.331-0.349-1.998 0.223 0.015 0.668 0.043 0.891 0.058 0.605-0.687 1.248-1.34 1.931-1.95 0.488 0.522 0.982 1.05 1.476 1.573 0.241-0.039 0.726-0.126 0.968-0.165 0.049 0.261 0.15 0.793 0.198 1.06 0.421-0.334 0.837-0.667 1.259-1.001 0.309 0.542 0.623 1.084 0.934 1.625 0.44-1.297 0.203-2.932 1.225-3.948 -0.006 0.707-0.035 1.413-0.063 2.12 0.706 0.31 1.239 0.861 1.708 1.461 -0.232 0.421-0.459 0.842-0.682 1.268 0.213 0.218 0.639 0.659 0.852 0.881 0.449 1.272-0.006 2.676 0.575 3.919 0.866-0.368 1.757-0.687 2.661-0.963 -0.213 0.552-0.707 1.069-0.648 1.688 0.291 0.503 0.721 0.91 1.099 1.345 0.159-0.842 0.314-1.688 0.474-2.536 1.186 0.388 1.017 1.462 0.76 2.449 0.213-0.097 0.648-0.295 0.861-0.392 0.305-0.508 0.605-1.016 0.915-1.524 -0.073 0.828-0.15 1.65-0.228 2.478 0.218-0.015 0.653-0.049 0.866-0.063 0.179-0.625 0.362-1.249 0.562-1.863 0.115 0.382 0.354 1.147 0.475 1.529 0.179-0.474 0.353-0.943 0.531-1.418 0.232 0.958 0.523 1.902 0.877 2.821 0.203-0.828 0.406-1.655 0.613-2.482 0.088 0.319 0.262 0.949 0.349 1.263 0.388-0.213 0.779-0.421 1.171-0.625 0.102-1.829-0.334-3.667 0.068-5.477 0.314-1.394 0.023-2.812-0.184-4.2 0.125-0.188 0.377-0.566 0.498-0.755 -0.402-0.295-0.809-0.595-1.205-0.89 -0.053-0.295-0.15-0.886-0.198-1.186 -0.252 0.251-0.499 0.498-0.745 0.745 -0.639-1.099-1.297-2.182-1.984-3.252 -0.164 0.184-0.493 0.557-0.658 0.745 -0.324-0.029-0.652-0.053-0.977-0.077 -0.213 0.663-0.426 1.331-0.648 1.993 -0.305-0.808-0.692-1.577-1.152-2.303 0.141-0.179 0.426-0.542 0.566-0.721 0.387-0.45 0.793-0.885 1.205-1.312 1.132 0.746 2.337 1.52 3.754 1.447 0.112 0.184 0.334 0.542 0.451 0.726 0.401 0.218 0.808 0.431 1.224 0.634 0.082 0.228 0.247 0.678 0.324 0.905 0.185-0.034 0.547-0.092 0.73-0.121 0.601 2.09 2.168 3.764 2.53 5.937 0.311 1.359 0.547 2.739 0.736 4.123 -1.858 0.189-3.678 1.66-3.088 3.702 -0.261 0.508-0.527 1.016-0.783 1.524 -1.166 0.547-2.386 0.46-3.504-0.14 -0.203 0.16-0.609 0.479-0.807 0.639 -1.307-0.083-2.662-0.111-3.785 0.658 -0.251-0.082-0.754-0.257-1.006-0.339 -0.504-0.02-1.007-0.02-1.505-0.029 -0.61-0.455-1.297-0.794-1.999-1.074 -0.275-0.939-0.541-1.887-0.813-2.831 -0.198 0.034-0.59 0.106-0.789 0.14 -0.154-0.663 0.137-2.192-1.021-1.737 -0.083 0.198-0.257 0.604-0.344 0.808 -0.11-0.208-0.329-0.619-0.44-0.822 -1.171 0.348-0.764 1.955-1.045 2.908 -0.059-0.745-0.126-1.49-0.189-2.23 -0.695 0.053-1.354-0.14-1.949-0.484 -0.092 0.392-0.184 0.784-0.271 1.171 -0.058-0.363-0.174-1.093-0.232-1.457 -0.943 0.474-1.828 1.055-2.598 1.771 -0.585-0.13-1.161-0.271-1.747-0.353 -0.784 0.213-1.132 1.05-1.65 1.606 0.02-0.716 0.112-1.457-0.097-2.158 -0.411-0.203-0.88-0.198-1.316-0.281 -0.527-0.242-1.021-0.019-1.495 0.223 -0.097 0.039-0.295 0.121-0.392 0.16 -0.387-1.166-0.958-2.259-1.669-3.256 -0.189 0.436-0.373 0.876-0.552 1.316 0.402 0.581 0.682 1.234 0.765 1.936 -0.377 0.16-0.75 0.315-1.123 0.475 -0.193-0.716-0.363-1.457-0.861-2.033 -0.015 0.741-0.01 1.481-0.01 2.221 -0.871-0.464-1.466-1.268-2.1-1.999 -0.338 0.455-0.677 0.915-1.021 1.374 -0.063-0.343-0.184-1.03-0.247-1.369 -0.281 0.547-0.556 1.094-0.837 1.641 -0.963-0.978-1.099-2.386-1.52-3.625 -0.629 0.833-0.847 1.854-1.036 2.855 -0.653 0.3-1.311 0.595-1.969 0.886 -0.324-0.605-0.653-1.205-1.006-1.791 -1.219 1.152-2.903 0.672-4.398 0.832 -0.102-0.343-0.314-1.03-0.421-1.374 -0.155 0.436-0.305 0.866-0.459 1.301 -0.16 0.005-0.484 0.02-0.648 0.024 -0.581 1.001-1.606 1.021-2.613 0.798 -0.251 0.266-0.503 0.532-0.755 0.803 -0.072-0.213-0.217-0.639-0.29-0.852 -0.823 0.522-1.64 1.05-2.458 1.583l-0.194-0.232c-0.16-0.179-0.479-0.542-0.634-0.721 -0.856 0.043-1.708 0.072-2.56 0.111 -0.503 0.851-1.137 1.074-1.849 0.295 0.111 0.59 0.213 1.181 0.319 1.776 -0.392 0.242-0.779 0.488-1.171 0.735 -0.798-1.166-1.602-2.361-2.729-3.242 -0.837 0.566-1.64 1.171-2.4 1.829 -0.474-0.174-0.948-0.348-1.418-0.522 -0.295 0.44-0.59 0.88-0.885 1.326 -0.039-0.223-0.111-0.672-0.15-0.895 -0.489 0.048-0.973 0.092-1.457 0.141 -0.494-0.6-0.987-1.195-1.48-1.791 -0.097 0.339-0.295 1.021-0.397 1.36 -0.286 0.087-0.861 0.256-1.147 0.338 -0.436 1.292 0.644 2.12 1.442 2.942 -0.6-0.005-1.195-0.005-1.791 0 -0.203-0.469-0.401-0.934-0.6-1.398 -0.339 0.363-0.672 0.726-1.006 1.083 -0.3-0.91-0.261-1.868-0.141-2.801 -0.242 0.266-0.479 0.532-0.716 0.798 -0.073-0.31-0.218-0.929-0.291-1.238 -0.314 0.411-0.629 0.822-0.938 1.234 -0.286-0.262-0.571-0.523-0.856-0.784 -0.3 0.276-0.595 0.552-0.89 0.828 -0.233-0.058-0.697-0.174-0.929-0.232 -0.329 0.431-0.658 0.871-0.982 1.307 0.281 0.349 0.562 0.697 0.837 1.045 0.005 0.3 0.005 0.9 0.01 1.195 -0.329-0.237-0.653-0.479-0.982-0.716 -0.522 0.726-0.905 1.534-1.214 2.371 -0.653-0.426-1.296-0.861-1.94-1.306 -0.542 0.522-1.094 1.04-1.587 1.606 -0.402 0.484-0.77 1.002-1.2 1.461 -0.687 0.078-1.374 0-2.056-0.029 -0.169 0.121-0.508 0.363-0.673 0.489 -1.205-0.228-2.409-0.436-3.624-0.615 -0.537-0.585-1.074-1.166-1.611-1.747 -0.338 0.333-0.677 0.663-1.016 0.997 -1.277-1.718-1.249-4.19-3.111-5.463 -0.697-0.493-0.948-2.182-1.998-1.335 -0.17-0.852-0.339-1.703-0.542-2.55 0.198-0.204 0.6-0.605 0.798-0.804 0.663-0.745 1.461-1.442 1.829-2.39 0.329-1.693 0.252-3.435 0.199-5.153 0.227 0.242 0.459 0.479 0.687 0.721 0.276-0.938 0.726-1.81 1.5-2.429 0.232 0.111 0.692 0.339 0.919 0.45 0.247-0.518 0.494-1.036 0.74-1.549l0.092-0.193C154.21 167.59 154.877 166.714 155.492 165.8z"/><path fill="#1E2227" d="M229.752 167.092c0.072-0.13 0.219-0.392 0.291-0.518 0.072 0.668 0.149 1.34 0.227 2.008 0.412-0.474 0.822-0.948 1.239-1.422 0.175 0.198 0.358 0.392 0.537 0.59 -0.296 0.406-0.591 0.813-0.886 1.219 0.262 0.102 0.779 0.295 1.04 0.397 0.242-0.557 0.483-1.108 0.731-1.66 0.895 0.663 1.969 0.938 3.067 1.035 0.174-0.193 0.518-0.585 0.692-0.779 0.145 0.179 0.439 0.546 0.585 0.726 0.537-0.169 1.073-0.333 1.616-0.498 -0.116-0.542-0.237-1.08-0.354-1.616 0.46 0.28 0.924 0.556 1.379 0.856 0.46 0.726 0.848 1.495 1.152 2.303 0.043 0.15 0.135 0.446 0.184 0.591 -0.465 1.079-0.005 2.109 0.503 3.068 -1.151-0.169-1.364-1.249-1.466-2.231 -1.553-0.431-3.141-0.711-4.723-1.026 0.648 0.837 1.945 1.437 1.906 2.618 -0.513 1.37-1.412 2.545-2.283 3.707 -0.213-0.222-0.639-0.663-0.852-0.881 0.223-0.425 0.449-0.847 0.682-1.268 -0.469-0.6-1.002-1.151-1.708-1.461 0.028-0.707 0.058-1.413 0.063-2.12 -1.021 1.016-0.784 2.651-1.225 3.948 -0.311-0.542-0.625-1.083-0.934-1.625 -0.422 0.334-0.838 0.667-1.259 1.001 -0.048-0.266-0.149-0.798-0.198-1.06 -0.242 0.039-0.727 0.125-0.968 0.165 -0.493-0.523-0.987-1.05-1.476-1.573 -0.683 0.61-1.326 1.263-1.931 1.95 -0.223-0.015-0.668-0.043-0.891-0.058 0.116 0.667 0.232 1.331 0.349 1.998 -1.118-0.14-2.095 0.349-3.005 0.939 -0.537 0.494-1.069-0.266-1.534-0.469 -0.276 0.087-0.547 0.184-0.818 0.276 -0.063 0.542-0.131 1.084-0.194 1.63 -0.29-0.445-0.576-0.895-0.866-1.335 -0.145-0.043-0.44-0.121-0.585-0.16 0.237-0.856 0.397-1.732 0.339-2.623 -0.982-0.034-1.901 0.276-2.734 0.779 -0.087-0.314-0.266-0.949-0.358-1.263 -0.281 0.75-0.542 1.51-0.784 2.274 -0.833-0.223-1.655-0.653-2.536-0.571 -0.552 0.266-1.026 0.658-1.52 1.006 -0.155-0.174-0.464-0.513-0.619-0.682 -0.121 0.344-0.358 1.041-0.479 1.389 -0.266-0.595-0.527-1.19-0.789-1.785 -0.223 0.184-0.445 0.368-0.667 0.556 -0.324-0.198-0.648-0.392-0.973-0.585 -0.077 0.295-0.232 0.891-0.31 1.186 -0.851-0.518-1.756-0.938-2.598-1.466 -0.537-0.677-0.885-1.471-1.282-2.23 0.015 1.05-0.261 2.076-0.997 2.855 -0.199-0.465-0.392-0.929-0.585-1.389 -0.121 0.396-0.242 0.798-0.358 1.2 -0.557-0.455-1.113-0.9-1.674-1.335 -0.798 0.542-1.611 1.059-2.444 1.558 -0.242 0.77-0.634 1.481-1.146 2.105 -0.595-0.499-1.37-0.436-2.09-0.45 -0.397-0.392-0.789-0.789-1.181-1.181 0.092 0.934 0.199 1.868 0.339 2.797 -0.155-0.135-0.464-0.411-0.619-0.547 -0.14-0.546-0.281-1.088-0.416-1.63 -0.373 0.034-0.745 0.067-1.118 0.102 -0.091-0.291-0.281-0.876-0.372-1.166 -0.107 0.576-0.208 1.156-0.315 1.732 -0.609-0.421-1.224-0.842-1.834-1.263 0.136-0.459 0.276-0.915 0.421-1.369 -0.416 0.382-0.813 0.793-1.288 1.108 -0.89 0.174-1.717-0.382-2.549-0.624 -0.242 0.73-0.475 1.461-0.697 2.197 -0.3-0.828-0.614-1.646-0.948-2.458 0.421-0.726 0.856-1.447 1.331-2.139 0.358 0.208 0.716 0.417 1.074 0.625 -0.053-0.847 0.15-1.665 0.61-2.376 0.14 0.135 0.421 0.416 0.566 0.557 0.523-0.503 0.77-1.171 0.9-1.868 1.791-0.673 3.305 0.813 4.205 2.187 0.469-0.619 0.992-1.2 1.568-1.722 1.04 0.6 2.057 1.249 3.014 1.969 0.648-0.755 1.394-1.423 2.216-1.984 0.078 0.324 0.232 0.963 0.31 1.282 0.377-0.063 0.755-0.121 1.132-0.184 -0.034 0.382-0.068 0.765-0.097 1.152 0.542 0.039 1.084 0.083 1.626 0.121 0.058-0.315 0.174-0.948 0.232-1.268 0.141 0.154 0.421 0.464 0.562 0.619 0.866-0.344 1.732-0.692 2.599-1.036 0.067 0.271 0.203 0.808 0.271 1.079 0.566-0.615 1.345-1.113 2.032-0.31 -0.648 0.45-1.306 0.88-1.964 1.311 0.329 0.329 0.663 0.663 0.992 0.992 0.169-0.421 0.338-0.842 0.513-1.258 0.169 0.615 0.343 1.229 0.508 1.844 -0.049-1.239 0.348-2.342 1.403-3.043 0.242-0.876 0.474-1.751 0.702-2.632 0.929 0.924 1.917 1.79 2.971 2.574 0.687-0.421 1.476-0.542 2.27-0.494 0.411 0.426 0.832 0.847 1.253 1.268 0.024-0.411 0.053-0.827 0.078-1.238 0.116-0.116 0.338-0.358 0.455-0.479 -0.537-0.469-1.108-0.938-1.326-1.645 1.452 0.552 2.681 1.524 3.644 2.729 1.041-0.436 1.524-1.423 1.863-2.434 0.228 0.16 0.672 0.484 0.9 0.644 0.266-0.271 0.537-0.542 0.808-0.813 0.174 0.208 0.532 0.614 0.711 0.817 0.629-0.058 1.263-0.111 1.897-0.169l0.348 0.203c0.15 0.232 0.455 0.697 0.605 0.929 0.532 0.242 1.065 0.479 1.602 0.716 -0.432-0.711-0.871-1.413-1.317-2.109 0.475 0.058 0.954 0.121 1.432 0.179 0.223-0.14 0.663-0.421 0.881-0.561C229.104 169.095 229.82 168.064 229.752 167.092z"/><path fill="#171A1E" d="M242.695 167.817c0.165-0.188 0.494-0.561 0.658-0.745 0.688 1.07 1.346 2.153 1.984 3.252 0.246-0.247 0.493-0.494 0.745-0.745 0.048 0.3 0.146 0.89 0.198 1.186 0.396 0.295 0.803 0.595 1.205 0.89 -0.121 0.188-0.373 0.566-0.498 0.755 0.207 1.389 0.498 2.806 0.184 4.2 -0.402 1.81 0.033 3.648-0.068 5.477 -0.392 0.203-0.783 0.412-1.171 0.625 -0.087-0.314-0.261-0.944-0.349-1.263 -0.207 0.828-0.41 1.655-0.613 2.482 -0.354-0.919-0.645-1.863-0.877-2.821 -0.179 0.475-0.353 0.944-0.531 1.418 -0.121-0.382-0.359-1.147-0.475-1.529 -0.199 0.615-0.383 1.239-0.562 1.863 -0.213 0.014-0.648 0.048-0.866 0.063 0.077-0.828 0.154-1.65 0.228-2.478 -0.31 0.508-0.61 1.016-0.915 1.524 -0.213 0.097-0.648 0.295-0.861 0.392 0.257-0.987 0.426-2.061-0.76-2.449 -0.159 0.847-0.314 1.694-0.474 2.536 -0.378-0.435-0.808-0.842-1.099-1.345 -0.059-0.619 0.436-1.137 0.648-1.688 -0.904 0.276-1.795 0.595-2.661 0.963 -0.581-1.244-0.126-2.647-0.575-3.919 0.871-1.161 1.771-2.337 2.283-3.707 0.039-1.181-1.258-1.78-1.906-2.618 1.582 0.315 3.17 0.595 4.723 1.026 0.102 0.982 0.314 2.062 1.466 2.231 -0.508-0.958-0.968-1.989-0.503-3.068 -0.049-0.145-0.141-0.44-0.184-0.591 0.223-0.663 0.436-1.331 0.648-1.993C242.043 167.765 242.371 167.789 242.695 167.817z"/><path fill="#4A5456" d="M245.895 167.571c1.717-0.082 3.623 0.194 4.848 1.529 -0.319 0.871-0.111 1.645 0.625 2.197 -0.281 1.166 0.672 2.98-0.664 3.629 -0.362-2.173-1.93-3.847-2.53-5.937 -0.184 0.029-0.546 0.087-0.73 0.121 -0.077-0.228-0.242-0.678-0.324-0.905C246.702 168.001 246.296 167.789 245.895 167.571z"/><path fill="#3E4347" d="M148.515 171.742c1.123-1.713 2.889-2.864 4.945-3.078 -0.247 0.513-0.494 1.031-0.74 1.549 -0.228-0.111-0.687-0.339-0.919-0.45 -0.774 0.62-1.224 1.491-1.5 2.429 -0.228-0.242-0.46-0.479-0.687-0.721 0.053 1.718 0.13 3.46-0.199 5.153 -0.368 0.948-1.166 1.646-1.829 2.39 -0.16-0.411-0.314-0.822-0.47-1.233C147.339 175.705 147.344 173.561 148.515 171.742z"/><path fill="#60686C" d="M250.742 169.1c1.143 1.146 2.294 2.308 3.189 3.667 -0.155 0.203-0.461 0.605-0.609 0.808 -0.01 0.45-0.016 0.905-0.02 1.359 -0.75 0.663-1.269 1.524-1.128 2.555 0.097 2.022-1.142 3.697-1.936 5.453 -0.097 0.276-0.29 0.823-0.388 1.099 -0.169-0.508-0.343-1.011-0.512-1.515 -0.006 0.581-0.006 1.161 0 1.747 -0.591-0.077-1.186-0.126-1.771 0 0.256-0.508 0.522-1.016 0.783-1.524 -0.59-2.042 1.229-3.513 3.088-3.702 -0.189-1.384-0.426-2.763-0.736-4.123 1.336-0.648 0.383-2.463 0.664-3.629C250.631 170.745 250.423 169.971 250.742 169.1z"/><path fill="#797A7C" d="M147.799 172.144c0.179-0.102 0.537-0.3 0.716-0.402 -1.171 1.819-1.176 3.963-1.398 6.039l-0.16-0.436c-0.377-1.297-0.696-2.613-0.919-3.944 0.387-0.053 1.161-0.165 1.548-0.218C147.639 172.922 147.745 172.405 147.799 172.144z"/><path fill="#82898C" d="M253.932 172.768c0.493 0.895 1.074 1.742 1.78 2.487 -0.067 0.319-0.203 0.958-0.267 1.277 -0.454-0.077-0.909-0.155-1.364-0.228 -0.165 0.387-0.334 0.774-0.498 1.162 0.46-0.097 0.919-0.184 1.379-0.262 0.169 0.087 0.508 0.262 0.677 0.349 -0.256 0.188-0.76 0.557-1.016 0.74 -0.063 0.276-0.193 0.828-0.256 1.103 -0.219-0.106-0.654-0.319-0.871-0.431 -0.857 1.283-0.479 2.715 0.105 4.017 -0.436-0.087-0.865-0.174-1.301-0.262 -0.209 0.431-0.422 0.856-0.629 1.282 -0.479-0.353-0.959-0.706-1.433-1.06 0.794-1.756 2.032-3.431 1.936-5.453 -0.141-1.031 0.378-1.892 1.128-2.555 0.004-0.455 0.01-0.91 0.02-1.359C253.471 173.373 253.776 172.971 253.932 172.768z"/><path fill="#32393F" d="M176.739 180.979c0.493 0.595 0.987 1.19 1.48 1.791 0.484-0.049 0.968-0.092 1.457-0.141 0.039 0.223 0.111 0.672 0.15 0.895 0.295-0.445 0.59-0.885 0.885-1.326 0.47 0.174 0.944 0.349 1.418 0.522 0.76-0.658 1.563-1.263 2.4-1.829 1.127 0.88 1.931 2.076 2.729 3.242 0.392-0.247 0.779-0.494 1.171-0.735 -0.106-0.595-0.208-1.186-0.319-1.776 0.711 0.779 1.345 0.556 1.849-0.295 0.852-0.039 1.703-0.068 2.56-0.111 0.155 0.179 0.474 0.542 0.634 0.721 0.068 1.379-0.571 2.492-1.896 2.932 -0.199-0.871-0.387-1.761-0.919-2.497 0.029 0.74 0.078 1.48 0.135 2.221 -0.943-0.02-1.887-0.02-2.826 0.019 -0.653 1.718-2.903 1.437-4.374 1.853l-0.329-0.091c-1.37-0.726-2.686 0.024-3.856 0.745 -0.261-0.338-0.522-0.677-0.784-1.011 -0.924 0.537-1.979 0.595-3.014 0.499 -0.092 0.242-0.271 0.73-0.363 0.978 -0.479-0.02-0.958-0.039-1.432-0.058 -0.145 0.121-0.44 0.358-0.585 0.474 -0.518-0.078-1.036-0.155-1.553-0.232 -0.077 0.223-0.228 0.663-0.305 0.886 -0.46 0.595-0.958 1.156-1.461 1.713 -0.755 0.198-1.66 0.251-2.008 1.079 -0.058-0.106-0.184-0.319-0.242-0.426 -0.402-0.15-0.784-0.333-1.142-0.556 -0.624-0.034-1.258-0.058-1.833-0.324 -0.595-0.498-1.166-1.016-1.742-1.529 0.494-0.566 1.045-1.083 1.587-1.606 0.644 0.445 1.287 0.88 1.94 1.306 0.31-0.837 0.692-1.645 1.214-2.371 0.33 0.237 0.654 0.479 0.982 0.716 -0.004-0.295-0.004-0.896-0.01-1.195 -0.275-0.348-0.556-0.696-0.837-1.045 0.324-0.436 0.653-0.876 0.982-1.307 0.232 0.058 0.696 0.174 0.929 0.232 0.295-0.276 0.59-0.552 0.89-0.828 0.285 0.261 0.571 0.522 0.856 0.784 0.31-0.412 0.624-0.823 0.938-1.234 0.073 0.31 0.218 0.929 0.291 1.238 0.237-0.266 0.474-0.532 0.716-0.798 -0.121 0.934-0.16 1.892 0.141 2.801 0.334-0.358 0.667-0.721 1.006-1.083 0.199 0.464 0.397 0.929 0.6 1.398 0.595-0.005 1.19-0.005 1.791 0 -0.798-0.822-1.878-1.65-1.442-2.942 0.286-0.082 0.861-0.251 1.147-0.338C176.444 182 176.643 181.318 176.739 180.979z"/><path fill="#333A3F" d="M208.365 179.958c0.189-1.001 0.407-2.022 1.036-2.855 0.421 1.239 0.557 2.647 1.52 3.625 0.281-0.547 0.556-1.094 0.837-1.641 0.063 0.339 0.184 1.026 0.247 1.369 0.344-0.459 0.683-0.919 1.021-1.374 0.634 0.73 1.229 1.534 2.1 1.999 0-0.74-0.005-1.48 0.01-2.221 0.499 0.576 0.668 1.316 0.861 2.033 0.373-0.16 0.745-0.315 1.123-0.475 -0.083-0.701-0.363-1.354-0.765-1.936 0.179-0.44 0.363-0.88 0.552-1.316 0.711 0.997 1.282 2.09 1.669 3.256 0.097-0.039 0.295-0.121 0.392-0.16 0.203 0.267 0.609 0.798 0.808 1.065 -0.484-0.078-0.972-0.136-1.461-0.179 -0.397 0.522-0.639 1.132-0.924 1.713 -0.063-0.184-0.179-0.552-0.237-0.735 -0.764 0.687-1.751 0.963-2.734 1.161 -0.266-0.387-0.527-0.774-0.793-1.157 -1.181-0.077-2.39-0.092-3.503 0.373 0.237 0.333 0.475 0.672 0.717 1.006 -0.581-0.252-1.157-0.503-1.737-0.755 -1.108 1.045-2.758 0.973-3.91 1.921 -0.01-1.422 0.043-2.84 0.13-4.258 -0.784 0.62-0.856 1.641-1.055 2.55 -0.314-0.291-0.624-0.576-0.934-0.866 -0.256 0.571-0.513 1.142-0.765 1.713 -0.537-0.329-1.069-0.658-1.602-0.987 -0.111-0.329-0.333-0.987-0.445-1.316 -0.116 0.789-0.232 1.578-0.349 2.366 -0.16-0.005-0.474-0.02-0.629-0.024 0.039-0.619 0.083-1.239 0.126-1.853 -0.813 0.721-1.621 1.447-2.419 2.182 -0.624 0.058-1.249 0.121-1.868 0.188 -0.74-0.677-1.422-1.413-2.037-2.201 0.818-0.532 1.635-1.06 2.458-1.583 0.073 0.213 0.218 0.639 0.29 0.852 0.252-0.271 0.503-0.537 0.755-0.803 1.007 0.223 2.033 0.203 2.613-0.798 0.165-0.005 0.489-0.019 0.648-0.024 0.154-0.435 0.305-0.866 0.459-1.301 0.106 0.344 0.319 1.031 0.421 1.374 1.495-0.16 3.179 0.32 4.398-0.832 0.353 0.585 0.682 1.186 1.006 1.791C207.054 180.553 207.712 180.258 208.365 179.958z"/><path fill="#A1A9AE" d="M255.639 177.553c0.432 0.324 0.857 0.653 1.277 0.992 -0.527 0.692-1.117 1.331-1.766 1.907 0.393 0.537 0.779 1.069 1.172 1.611 -0.688 0.058-1.375 0.097-2.057 0.121 0.42 0.827 0.855 1.655 1.233 2.506 -0.169 0.141-0.508 0.412-0.678 0.547 -0.097 0.382-0.179 0.774-0.261 1.162 -0.354-0.397-0.707-0.793-1.055-1.19 -0.436 0.382-0.867 0.77-1.293 1.156 -0.609 0.083-1.219 0.165-1.824 0.242 -0.102-0.165-0.305-0.499-0.406-0.668 -0.469 0.431-0.938 0.861-1.402 1.292 -0.155-0.184-0.465-0.551-0.619-0.735 -0.383 0.111-0.766 0.218-1.143 0.329 0.097 0.653 0.189 1.311 0.275 1.969 -0.842 0.121-1.659-1.713-2.027-0.344 -0.871-0.024-1.736 0.034-2.598 0.155 -0.905 0.146-1.814 0.058-2.7-0.13 -2.188-0.436-4.428-0.305-6.644-0.343 0.799-0.232 1.606-0.45 2.448-0.436 0.271 0.029 0.808 0.087 1.079 0.116 0.354 0.029 1.064 0.087 1.418 0.117 0.42-0.3 0.846-0.596 1.271-0.891 0.833 0.165 1.713 0.3 2.377 0.885 0.726-0.135 1.456-0.286 2.182-0.45 0.552-0.949 1.699-0.793 2.633-0.915 0.977-0.707 1.916-1.466 2.807-2.284 -0.006-0.585-0.006-1.166 0-1.747 0.169 0.503 0.343 1.006 0.512 1.515 0.098-0.276 0.291-0.823 0.388-1.099 0.474 0.354 0.953 0.707 1.433 1.06 0.207-0.426 0.42-0.851 0.629-1.282 0.436 0.087 0.865 0.174 1.301 0.262 -0.585-1.302-0.963-2.734-0.105-4.017 0.217 0.112 0.652 0.324 0.871 0.431 0.063-0.275 0.193-0.827 0.256-1.103C254.879 178.11 255.383 177.742 255.639 177.553z"/><path fill="#40484D" d="M218.967 180.263c0.474-0.242 0.968-0.464 1.495-0.223 0.436 0.083 0.905 0.078 1.316 0.281 0.208 0.702 0.116 1.442 0.097 2.158 0.518-0.557 0.866-1.394 1.65-1.606 0.585 0.082 1.161 0.223 1.747 0.353 0.77-0.716 1.654-1.297 2.598-1.771 0.059 0.363 0.175 1.094 0.232 1.457 0.088-0.387 0.18-0.779 0.271-1.171 0.596 0.344 1.254 0.537 1.949 0.484 0.063 0.74 0.131 1.485 0.189 2.23 0.281-0.953-0.126-2.56 1.045-2.908 0.111 0.203 0.33 0.614 0.44 0.822 0.087-0.203 0.261-0.609 0.344-0.808 1.157-0.455 0.866 1.074 1.021 1.737 0.199-0.034 0.591-0.106 0.789-0.14 0.271 0.943 0.537 1.892 0.813 2.831 0.702 0.28 1.389 0.619 1.999 1.074 0.498 0.009 1.001 0.009 1.505 0.029 -0.74 0.658-1.428 1.389-1.965 2.226 -0.697-1.215-2.129-1.824-2.598-3.199 -0.16 0.005-0.479 0.02-0.639 0.024 -0.054-0.765-0.107-1.534-0.155-2.298 -0.416 0.499-0.827 0.997-1.239 1.495 -0.328-0.053-0.658-0.106-0.986-0.155 -0.271 0.208-0.543 0.416-0.809 0.629 -0.125-1.209-1.041-1.936-2.057-2.429 -0.726 0.905-1.428 1.907-2.55 2.347 -0.213-0.3-0.634-0.9-0.842-1.2 -0.576 0.401-1.152 0.803-1.723 1.205 -0.184-0.015-0.542-0.043-0.726-0.058 -0.314 0.367-0.633 0.74-0.948 1.113 -0.179-0.503-0.358-1.002-0.537-1.505 -0.822 0.663-1.592 1.422-2.555 1.892 -0.968-0.232-1.858-0.702-2.763-1.108 -0.368 0.474-0.736 0.949-1.132 1.403 -0.223-0.464-0.169-0.987-0.213-1.485 -0.126-0.097-0.382-0.295-0.508-0.397 -1.292 0.537-2.255 1.568-3.358 2.381 0.063-0.45 0.136-0.895 0.204-1.341 -1.171 0.092-3.436-0.677-3.373 1.176 -1.103-0.45-2.604-0.407-2.99 0.963 -0.387-0.286-0.774-0.566-1.162-0.852 -0.372 0.266-0.745 0.532-1.118 0.798 -0.9-0.116-1.81-0.155-2.705 0.024 0 0.402 0.005 0.804 0.005 1.205 -0.305 0.058-0.919 0.174-1.229 0.232 0.13-0.16 0.396-0.474 0.532-0.629 -0.411-0.556-0.798-1.127-1.161-1.708 -0.668 0.165-1.302 0.416-1.902 0.736 -0.179-0.194-0.532-0.581-0.711-0.779 -0.053 0.271-0.155 0.808-0.208 1.074 -0.228-0.46-0.455-0.924-0.678-1.384 -0.914 0.687-1.824 1.384-2.733 2.071 -0.518-0.349-1.05-0.677-1.602-0.978 -0.358 0.469-0.716 0.944-1.074 1.413 -0.295-0.344-0.591-0.683-0.886-1.026 -0.087 0.189-0.256 0.557-0.339 0.74 -0.421-0.31-0.837-0.624-1.258-0.934 -0.716 0.319-1.437 0.639-2.158 0.953 -0.087-0.314-0.261-0.948-0.348-1.263 1.471-0.416 3.721-0.135 4.374-1.853 0.939-0.039 1.882-0.039 2.826-0.019 -0.058-0.741-0.106-1.481-0.135-2.221 0.532 0.735 0.721 1.626 0.919 2.497 1.326-0.44 1.964-1.553 1.896-2.932l0.194 0.232c0.614 0.789 1.297 1.524 2.037 2.201 0.62-0.067 1.244-0.13 1.868-0.188 0.798-0.735 1.606-1.461 2.419-2.182 -0.043 0.614-0.087 1.234-0.126 1.853 0.155 0.005 0.469 0.02 0.629 0.024 0.116-0.789 0.232-1.578 0.349-2.366 0.111 0.329 0.333 0.987 0.445 1.316 0.532 0.329 1.065 0.658 1.602 0.987 0.252-0.571 0.508-1.142 0.765-1.713 0.31 0.29 0.62 0.576 0.934 0.866 0.199-0.91 0.271-1.931 1.055-2.55 -0.087 1.418-0.14 2.836-0.13 4.258 1.151-0.948 2.801-0.876 3.91-1.921 0.58 0.251 1.156 0.503 1.737 0.755 -0.242-0.334-0.479-0.673-0.717-1.006 1.113-0.465 2.323-0.45 3.503-0.373 0.266 0.382 0.527 0.77 0.793 1.157 0.982-0.198 1.97-0.474 2.734-1.161 0.059 0.184 0.174 0.551 0.237 0.735 0.286-0.581 0.527-1.19 0.924-1.713 0.489 0.043 0.977 0.102 1.461 0.179C219.576 181.061 219.17 180.529 218.967 180.263z"/><path fill="#646C70" d="M177.649 189.964c0.459 0.465 0.89 0.953 1.287 1.471 -0.063 0.135-0.184 0.411-0.242 0.547 -0.484 0.13-0.973 0.251-1.457 0.368 0.223 0.208 0.445 0.421 0.673 0.629 -0.818 0.106-1.897-0.068-2.008 1.026 -0.073-0.199-0.213-0.605-0.285-0.804 -1.142 0.315-2.284 0.029-3.339-0.44 0.102 0.784 0.073 1.578-0.223 2.328 -0.135-0.871-0.247-1.742-0.358-2.613 -0.377 0.624-0.75 1.249-1.113 1.877 -0.165-0.305-0.329-0.609-0.498-0.91 -0.184-0.125-0.542-0.377-0.726-0.503 0.47-0.44 0.934-0.886 1.398-1.331 0.934 0.193 1.868 0.373 2.807 0.546 -0.054-0.237-0.165-0.716-0.218-0.958 0.73-0.01 1.461-0.015 2.192-0.019 0.053 0.377 0.165 1.132 0.218 1.509 0.169-0.464 0.339-0.924 0.513-1.384 0.261-0.097 0.789-0.29 1.05-0.382C177.402 190.681 177.566 190.202 177.649 189.964z"/><path fill="#586165" d="M225.47 183.732c1.122-0.44 1.824-1.442 2.55-2.347 1.016 0.494 1.932 1.22 2.057 2.429 0.266-0.213 0.537-0.421 0.809-0.629 0.328 0.048 0.658 0.102 0.986 0.155 0.412-0.499 0.823-0.997 1.239-1.495 0.048 0.765 0.102 1.534 0.155 2.298 0.159-0.005 0.479-0.02 0.639-0.024 0.469 1.375 1.9 1.984 2.598 3.199l0.15 0.493c-0.271-0.029-0.809-0.087-1.079-0.116 -0.722-0.803-1.351-1.684-1.993-2.545 -0.992 0.053-1.984 0.02-2.947-0.203 -0.586 0.551-1.137 1.137-1.654 1.747 -0.068-0.924-0.15-1.848-0.232-2.768 -0.18 0.411-0.349 0.823-0.523 1.229 -0.154 0.019-0.465 0.048-0.619 0.068 -0.295 0.508-0.58 1.016-0.871 1.524 -0.188-0.489-0.372-0.973-0.557-1.461 -0.063 0.542-0.135 1.083-0.222 1.621l-0.343 0.61c-0.097-0.716-0.189-1.433-0.286-2.148 -0.842 0.687-1.669 1.394-2.478 2.114 -0.847-1.209-2.109 0.286-3.048 0.634 0.068-0.421 0.136-0.842 0.203-1.258 -0.527-0.368-1.05-0.741-1.577-1.108 0 0.271-0.005 0.813-0.005 1.089 -0.585-0.078-1.123-0.271-1.428-0.809 -0.537 0.576-1.132 1.094-1.756 1.568 -0.76-0.644-1.703-0.948-2.661-1.156 -0.131 0.271-0.387 0.808-0.518 1.079 -1.292-0.198-2.603-0.242-3.905-0.203 0.073-0.363 0.146-0.731 0.218-1.094 -0.459-0.135-0.919-0.276-1.374-0.416 -0.063-1.853 2.202-1.084 3.373-1.176 -0.068 0.446-0.14 0.891-0.204 1.341 1.104-0.813 2.066-1.844 3.358-2.381 0.126 0.102 0.382 0.3 0.508 0.397 0.043 0.498-0.01 1.021 0.213 1.485 0.396-0.455 0.764-0.929 1.132-1.403 0.905 0.407 1.795 0.876 2.763 1.108 0.963-0.47 1.732-1.229 2.555-1.892 0.179 0.503 0.358 1.001 0.537 1.505 0.315-0.373 0.634-0.746 0.948-1.113 0.184 0.015 0.542 0.043 0.726 0.058 0.571-0.402 1.147-0.804 1.723-1.205C224.836 182.832 225.257 183.432 225.47 183.732z"/><path fill="#40454A" d="M147.33 182.368c1.05-0.847 1.301 0.842 1.998 1.335 1.863 1.272 1.834 3.745 3.111 5.463 0.339-0.334 0.678-0.663 1.016-0.997 0.537 0.581 1.074 1.161 1.611 1.747 1.215 0.179 2.419 0.387 3.624 0.615 0.165-0.126 0.503-0.368 0.673-0.489 0.682 0.029 1.369 0.106 2.056 0.029 0.431-0.459 0.798-0.978 1.2-1.461 0.576 0.513 1.147 1.031 1.742 1.529 -1.05 0.416-2.042 0.968-2.986 1.592 -0.406 0.256-0.837 0.475-1.282 0.658 -0.527-0.348-1.011-0.765-1.5-1.166 -0.44 0.353-0.885 0.711-1.326 1.064 -0.75-1.277-2.468-1.157-3.74-1.137C150.697 188.88 148.307 185.915 147.33 182.368z"/><path fill="#798286" d="M244.064 184.134c1.118 0.6 2.338 0.687 3.504 0.14 0.586-0.126 1.181-0.077 1.771 0 -0.891 0.818-1.83 1.578-2.807 2.284 -0.934 0.121-2.081-0.034-2.633 0.915 -0.726 0.164-1.456 0.314-2.182 0.45 -0.664-0.585-1.544-0.721-2.377-0.885 -0.426 0.295-0.852 0.59-1.271 0.891 -0.354-0.029-1.064-0.087-1.418-0.117l-0.15-0.493c0.537-0.837 1.225-1.568 1.965-2.226 0.252 0.082 0.755 0.257 1.006 0.339 1.123-0.77 2.479-0.741 3.785-0.658C243.455 184.613 243.861 184.293 244.064 184.134z"/><path fill="#C5C7CB" d="M255.499 184.69c0.223-0.039 0.677-0.116 0.905-0.154 0.028 0.755-1.074 2.758 0.387 2.361 0.141-0.285 0.426-0.852 0.566-1.132 -0.054 1.476-0.969 2.681-1.675 3.91 -0.155-0.644-0.3-1.287-0.444-1.931 -0.049 0.275-0.156 0.827-0.203 1.108 -0.514-0.358-1.021-0.711-1.529-1.069 -0.838 1.345-0.963 2.928-1.074 4.466l-0.33-0.329c-0.111-0.557-0.193-1.118-0.275-1.679 -0.15 0.382-0.439 1.137-0.585 1.515 -0.519-0.566-0.735-1.302-0.974-2.013 -0.105 0.45-0.207 0.895-0.314 1.345 -0.426-0.953-0.705-2.104-1.751-2.579 0.058 0.973 0.397 1.887 0.804 2.763 -0.078 0.13-0.238 0.387-0.32 0.518 -0.513-0.034-0.986 0.058-1.209 0.571 -0.498-1.04-0.842-2.864-2.371-2.583 -0.852-0.31-1.728-0.522-2.604-0.726l-0.033-0.445c0.861-0.121 1.727-0.179 2.598-0.155 0.368-1.369 1.186 0.465 2.027 0.344 -0.086-0.658-0.179-1.316-0.275-1.969 0.377-0.111 0.76-0.218 1.143-0.329 0.154 0.184 0.464 0.552 0.619 0.735 0.465-0.431 0.934-0.861 1.402-1.292 0.102 0.169 0.305 0.503 0.406 0.668 0.15 0.387-0.028 1.558 0.75 1.132 0.852 0.102 0.848-0.798 1.074-1.375 0.426-0.387 0.857-0.774 1.293-1.156 0.348 0.397 0.701 0.793 1.055 1.19 0.082-0.387 0.164-0.779 0.261-1.162C254.991 185.102 255.33 184.831 255.499 184.69z"/><path fill="#586065" d="M193.669 185.489c0.223 0.459 0.45 0.924 0.678 1.384 0.053-0.266 0.155-0.803 0.208-1.074 0.179 0.198 0.532 0.585 0.711 0.779 0.6-0.32 1.234-0.571 1.902-0.736 0.363 0.581 0.75 1.152 1.161 1.708 -0.135 0.155-0.401 0.469-0.532 0.629 -0.479 0.339-0.953 0.678-1.423 1.021 -0.034 0.837-0.072 1.679-0.15 2.516 -0.91-0.827-0.895-2.545-2.487-2.404 -0.164-0.121-0.494-0.373-0.658-0.499 -0.412 0.445-0.818 0.885-1.225 1.331 -0.609-0.416-1.205-0.856-1.785-1.316 -0.305 0.329-0.61 0.658-0.915 0.987 -1.026-0.687-2.323-1.147-3.547-0.755 -0.552 0.421-1.021 0.934-1.51 1.423 -0.396-0.053-0.793-0.107-1.185-0.16 -0.334 0.31-0.663 0.624-0.982 0.948l-0.136-0.499c-0.667 0.213-1.331 0.45-1.989 0.683 -0.333-0.833-0.624-0.837-0.871-0.02 -0.397-0.518-0.828-1.006-1.287-1.471 0.111-0.411 0.222-0.827 0.333-1.239 0.475-0.155 0.949-0.305 1.428-0.44 0.058 0.333 0.165 1.001 0.218 1.335 0.571-1.283 1.931-1.732 3.155-2.163 0.039-0.271 0.116-0.813 0.16-1.083l0.329 0.091c0.087 0.315 0.261 0.949 0.348 1.263 0.721-0.314 1.442-0.634 2.158-0.953 0.421 0.31 0.837 0.624 1.258 0.934 0.083-0.184 0.252-0.551 0.339-0.74 0.295 0.343 0.59 0.682 0.886 1.026 0.358-0.469 0.716-0.944 1.074-1.413 0.552 0.3 1.084 0.629 1.602 0.978C191.846 186.873 192.755 186.176 193.669 185.489z"/><path fill="#697175" d="M204.005 186.771c0.387-1.37 1.887-1.413 2.99-0.963 0.455 0.14 0.915 0.281 1.374 0.416 -0.072 0.363-0.145 0.73-0.218 1.094 1.302-0.039 2.613 0.005 3.905 0.203 0.131-0.271 0.387-0.808 0.518-1.079 0.958 0.208 1.901 0.513 2.661 1.156 0.625-0.474 1.219-0.992 1.756-1.568 0.305 0.537 0.842 0.731 1.428 0.809 0-0.276 0.005-0.818 0.005-1.089 0.527 0.368 1.05 0.74 1.577 1.108 -0.067 0.416-0.135 0.836-0.203 1.258 0.939-0.349 2.202-1.844 3.048-0.634 0.808-0.721 1.636-1.427 2.478-2.114 0.097 0.716 0.189 1.432 0.286 2.148 -0.068 0.145-0.213 0.44-0.286 0.585 -0.184-0.034-0.552-0.106-0.735-0.14 -0.247 0.329-0.489 0.663-0.736 1.001 -0.174 0.034-0.532 0.102-0.707 0.136 -0.285 0.358-0.566 0.726-0.847 1.088 -0.02-0.537-0.039-1.069-0.053-1.606 -0.271 0.276-0.542 0.557-0.809 0.833 -0.904-0.746-2.265-0.015-3.067-0.886 -0.552 0.247-1.103 0.503-1.645 0.76 -0.402-0.251-0.804-0.503-1.201-0.755 -0.251 0.368-0.508 0.73-0.759 1.098 -0.421-0.043-0.842-0.082-1.263-0.125 -0.179 0.208-0.538 0.629-0.716 0.837 -0.169-0.474-0.344-0.943-0.513-1.408 -0.581 0.387-1.132 0.856-1.795 1.108 -0.692-0.198-1.35-0.503-2.013-0.779 -0.087 0.407-0.179 0.813-0.261 1.225 -1.48-0.508-3.406 0.803-4.422-0.745 -0.087 0.784-0.184 1.572-0.281 2.361 -0.106-0.324-0.314-0.973-0.421-1.297 -0.344 0.247-0.687 0.499-1.026 0.75 -0.082-0.368-0.165-0.736-0.242-1.099 -0.344 0.426-0.688 0.852-1.026 1.277 -0.193-0.242-0.576-0.721-0.77-0.963 -0.837-0.382-1.413 0.6-2.081 0.924 -0.856 0.716-2.028 0.61-3.053 0.474 -0.155 0.155-0.455 0.464-0.61 0.615 -0.687-0.199-1.379-0.373-2.076-0.518 -0.126-0.348-0.251-0.697-0.373-1.04 -0.15 0.793-0.3 1.587-0.455 2.38 -0.155-0.614-0.305-1.229-0.459-1.843 -0.155 0.499-0.314 0.997-0.469 1.5 -0.455 0.102-0.91 0.203-1.365 0.31 0.165 0.266 0.489 0.808 0.653 1.079 -0.155 0.063-0.464 0.189-0.619 0.252 -0.813-0.667-1.418-1.548-1.616-2.594 -0.199 0.358-0.397 0.711-0.6 1.065 -0.266-0.083-0.808-0.237-1.079-0.314 0.392-0.465 0.779-0.934 1.171-1.398 -0.291 0.106-0.862 0.314-1.147 0.421 -0.058-0.237-0.165-0.716-0.218-0.954 -0.692 0.445-1.379 0.896-2.062 1.345 -0.048-0.247-0.145-0.74-0.193-0.987 -0.208 0.276-0.625 0.837-0.833 1.113 -0.102-0.145-0.305-0.436-0.406-0.581 -0.048-0.189-0.15-0.562-0.198-0.75 0.319-0.324 0.648-0.639 0.982-0.948 0.392 0.053 0.789 0.106 1.185 0.16 0.489-0.489 0.958-1.002 1.51-1.423 1.224-0.392 2.521 0.068 3.547 0.755 0.305-0.329 0.609-0.658 0.915-0.987 0.581 0.459 1.176 0.9 1.785 1.316 0.407-0.445 0.813-0.885 1.225-1.331 0.164 0.125 0.494 0.377 0.658 0.499 1.592-0.141 1.578 1.577 2.487 2.404 0.078-0.837 0.116-1.679 0.15-2.516 0.47-0.344 0.943-0.683 1.423-1.021 0.31-0.058 0.924-0.174 1.229-0.232 0-0.401-0.005-0.803-0.005-1.205 0.895-0.179 1.805-0.14 2.705-0.024 0.373-0.266 0.746-0.533 1.118-0.798C203.231 186.205 203.618 186.485 204.005 186.771z"/><path fill="#414A50" d="M175.288 186.606c1.036 0.097 2.09 0.039 3.014-0.499 0.262 0.334 0.523 0.673 0.784 1.011 1.171-0.721 2.487-1.471 3.856-0.745 -0.043 0.271-0.121 0.813-0.16 1.083 -1.224 0.431-2.584 0.88-3.155 2.163 -0.053-0.334-0.16-1.002-0.218-1.335 -0.479 0.135-0.953 0.285-1.428 0.44 -0.44 0.252-0.866 0.518-1.292 0.794 -0.063-0.329-0.184-0.978-0.247-1.302 -1.045 0.276-2.09 0.552-3.125 0.866 -0.585 0.663-1.239 1.268-1.984 1.751 -0.111-0.726-0.208-1.452-0.285-2.182 0.077-0.223 0.228-0.663 0.305-0.886 0.518 0.078 1.036 0.155 1.553 0.232 0.145-0.116 0.44-0.353 0.585-0.474 0.474 0.02 0.954 0.039 1.432 0.058C175.017 187.337 175.195 186.848 175.288 186.606z"/><path fill="#E0E2E6" d="M250.389 186.606c0.605-0.078 1.215-0.16 1.824-0.242 -0.227 0.576-0.223 1.476-1.074 1.375C250.36 188.165 250.539 186.994 250.389 186.606z"/><path fill="#8E9698" d="M225.61 187.516l0.343-0.61c0.184 0.377 0.556 1.132 0.746 1.51 0.57-0.387 1.146-0.774 1.723-1.156 0.354 0.31 0.706 0.619 1.059 0.934 0.127-0.203 0.383-0.604 0.509-0.803 0.963 0.242 1.921 0.513 2.874 0.803 -3.3 0.876-6.987 0.479-9.973 2.347 -1.413 0.745-3.053 0.789-4.543 1.307 -1.519 0.339-2.187 2.183-3.866 2.1 -0.286 0.266-0.571 0.532-0.856 0.803 -1.041-0.048-2.105-0.102-3.092 0.285 -0.126-0.619-0.242-1.238-0.358-1.863 -0.334 0.058-0.668 0.121-0.997 0.179 -0.087-0.305-0.266-0.919-0.353-1.229 -1.186 0.774-1.51 2.187-1.931 3.44 -0.387-0.146-0.774-0.295-1.156-0.436 -0.174 0.314-0.523 0.948-0.697 1.263 -0.14-0.919-0.261-1.843-0.372-2.768 -0.954 0.711-1.936 1.49-2.188 2.724 -0.527-1.156-1.064-2.323-1.234-3.59 0.315-0.188 0.625-0.377 0.934-0.571 0.073 0.624 0.155 1.249 0.237 1.877 0.087-0.387 0.261-1.152 0.349-1.534 0.619 0.126 1.244 0.257 1.868 0.392 0.982-0.329 1.979-0.702 2.686-1.5 1.026-0.193 2.042 0.024 2.917 0.585 0.092-0.314 0.276-0.938 0.373-1.253 0.295 0.29 0.59 0.581 0.885 0.871 0.436-0.421 0.876-0.842 1.292-1.282 0.179-0.208 0.537-0.629 0.716-0.837 0.421 0.043 0.842 0.082 1.263 0.125 0.251-0.368 0.508-0.73 0.759-1.098 0.397 0.251 0.799 0.503 1.201 0.755 0.542-0.256 1.093-0.513 1.645-0.76 0.803 0.871 2.163 0.14 3.067 0.886 0.267-0.276 0.537-0.557 0.809-0.833 0.014 0.537 0.033 1.069 0.053 1.606 0.281-0.363 0.562-0.73 0.847-1.088 0.174-0.034 0.533-0.102 0.707-0.136 0.247-0.339 0.489-0.672 0.736-1.001 0.184 0.034 0.551 0.106 0.735 0.14C225.397 187.957 225.542 187.661 225.61 187.516z"/><path fill="#E2E3E5" d="M253.506 187.782c0.508 0.358 1.016 0.711 1.529 1.069 -0.306 1.452-0.833 2.87-0.862 4.364 -0.59-0.305-1.181-0.614-1.741-0.967C252.543 190.71 252.668 189.127 253.506 187.782z"/><path fill="#525B60" d="M173.318 189.084c1.035-0.314 2.081-0.59 3.125-0.866 0.063 0.324 0.184 0.973 0.247 1.302 0.426-0.276 0.852-0.542 1.292-0.794 -0.111 0.412-0.223 0.828-0.333 1.239 -0.083 0.237-0.247 0.716-0.33 0.958 -0.261 0.092-0.789 0.286-1.05 0.382 -0.174 0.46-0.343 0.919-0.513 1.384 -0.053-0.377-0.165-1.132-0.218-1.509 -0.73 0.004-1.461 0.009-2.192 0.019 0.053 0.242 0.164 0.721 0.218 0.958 -0.939-0.174-1.873-0.353-2.807-0.546 -0.464 0.445-0.929 0.89-1.398 1.331 -0.16-0.111-0.489-0.339-0.653-0.45 -0.135-0.092-0.401-0.271-0.532-0.358 -0.387 0.233-0.765 0.475-1.142 0.726 -0.295-0.368-0.595-0.735-0.891-1.098 -0.445 0.609-0.9 1.209-1.335 1.829 -0.106-0.421-0.223-0.842-0.343-1.258 -0.527 0.276-1.055 0.562-1.583 0.842 -0.639-0.319-1.142-0.832-1.505-1.442 0.943-0.624 1.936-1.176 2.986-1.592 0.576 0.266 1.209 0.291 1.833 0.324 0.358 0.223 0.74 0.406 1.142 0.556 0.058 0.107 0.184 0.32 0.242 0.426 0.349-0.827 1.253-0.88 2.008-1.079 0.503-0.557 1.001-1.118 1.461-1.713 0.077 0.73 0.174 1.457 0.285 2.182C172.079 190.352 172.733 189.747 173.318 189.084z"/><path fill="#81898D" d="M210.479 190.042c0.663-0.252 1.214-0.721 1.795-1.108 0.169 0.465 0.344 0.934 0.513 1.408 -0.416 0.44-0.856 0.861-1.292 1.282 -0.295-0.29-0.59-0.581-0.885-0.871 -0.097 0.314-0.281 0.938-0.373 1.253 -0.875-0.562-1.892-0.779-2.917-0.585 -0.707 0.798-1.703 1.171-2.686 1.5 -0.624-0.135-1.249-0.266-1.868-0.392 -0.087 0.382-0.261 1.147-0.349 1.534 -0.082-0.629-0.165-1.253-0.237-1.877 -0.309 0.193-0.619 0.382-0.934 0.571 -0.59 0.237-1.19 0.44-1.791 0.648 -0.149-0.382-0.3-0.765-0.45-1.147 -0.455 1.017-0.963 2.008-1.626 2.908 -0.165-0.73-0.174-1.481-0.15-2.226 -0.73 0.29-1.471 0.547-2.216 0.798 0.261 0.232 0.522 0.464 0.789 0.702 -0.397 0.135-0.789 0.266-1.181 0.406 -0.513-0.377-1.026-0.745-1.534-1.118 -0.228 0.334-0.45 0.667-0.678 1.001 -0.779-0.707-1.824-0.562-2.681-0.078 -0.165-0.271-0.489-0.813-0.653-1.079 0.455-0.106 0.91-0.208 1.365-0.31 0.155-0.503 0.314-1.001 0.469-1.5 0.155 0.614 0.305 1.229 0.459 1.843 0.155-0.793 0.305-1.587 0.455-2.38 0.121 0.343 0.247 0.692 0.373 1.04 0.697 0.145 1.389 0.319 2.076 0.518 0.155-0.15 0.455-0.46 0.61-0.615 1.025 0.136 2.197 0.242 3.053-0.474 0.668-0.324 1.244-1.307 2.081-0.924 0.194 0.242 0.576 0.721 0.77 0.963 0.338-0.426 0.682-0.852 1.026-1.277 0.077 0.363 0.16 0.73 0.242 1.099 0.339-0.252 0.682-0.503 1.026-0.75 0.106 0.324 0.314 0.973 0.421 1.297 0.097-0.789 0.194-1.577 0.281-2.361 1.016 1.548 2.942 0.237 4.422 0.745 0.083-0.412 0.174-0.818 0.261-1.225C209.129 189.539 209.788 189.844 210.479 190.042z"/><path fill="#7A8188" d="M178.936 191.436c0.247-0.818 0.537-0.813 0.871 0.02 0.658-0.232 1.321-0.47 1.989-0.683l0.136 0.499c0.048 0.188 0.15 0.561 0.198 0.75 0.102 0.145 0.305 0.436 0.406 0.581 0.208-0.276 0.625-0.837 0.833-1.113 0.048 0.247 0.145 0.74 0.193 0.987 0.683-0.45 1.37-0.9 2.062-1.345 0.053 0.237 0.16 0.716 0.218 0.954 0.285-0.106 0.856-0.315 1.147-0.421 -0.393 0.464-0.779 0.934-1.171 1.398 0.271 0.077 0.813 0.232 1.079 0.314 0.063 1.137-0.324 2.201-0.895 3.169 -0.121-0.353-0.363-1.055-0.484-1.403 -0.315 0.556-0.629 1.113-0.944 1.669 -0.174-0.412-0.348-0.823-0.522-1.234 -0.377 0.436-0.754 0.866-1.132 1.302 -0.44-0.464-0.881-0.929-1.321-1.394 -0.111 0.247-0.334 0.735-0.45 0.982 -0.053-0.266-0.165-0.793-0.223-1.06 -0.329 0.353-0.658 0.707-0.987 1.064 -0.179-0.194-0.542-0.571-0.726-0.76 -0.411 0.431-0.823 0.866-1.233 1.297 0.135-0.789 0.275-1.578 0.421-2.361 -0.513 0.261-1.031 0.513-1.524 0.813 -0.092 0.707 0.048 1.417 0.082 2.129 -0.934-0.397-1.771-2.356-2.603-0.653 -0.286-0.494-0.576-0.987-0.866-1.476 -0.614 0.421-1.195 0.9-1.81 1.321 -0.958 0.15-1.611-0.653-2.24-1.224 -0.053 0.174-0.15 0.522-0.198 0.692 -0.774-0.063-1.548-0.121-2.328-0.174 -0.339 0.271-0.672 0.547-1.011 0.818 -0.14-0.189-0.421-0.576-0.562-0.77 -0.3 0.387-0.595 0.77-0.89 1.157l-0.329-0.039c-0.324-0.131-0.978-0.393-1.302-0.518 -0.063-0.203-0.179-0.6-0.237-0.798 0.135-0.179 0.406-0.532 0.542-0.711 0.503 0.15 1.001 0.3 1.505 0.45 -0.242-0.663-0.489-1.326-0.736-1.984 -0.251-0.131-0.754-0.382-1.011-0.508 0.527-0.28 1.055-0.566 1.583-0.842 0.121 0.417 0.237 0.837 0.343 1.258 -0.043 0.842 0.784 0.716 1.375 0.692 0.484 0.396 0.963 0.808 1.437 1.224 0.165-1.069 0.542-2.085 1.088-3.015 0.165 0.111 0.494 0.339 0.653 0.45 0.184 0.125 0.542 0.377 0.726 0.503 0.169 0.3 0.333 0.605 0.498 0.91 0.363-0.629 0.736-1.253 1.113-1.877 0.112 0.871 0.223 1.742 0.358 2.613 0.295-0.75 0.324-1.543 0.223-2.328 1.055 0.469 2.197 0.755 3.339 0.44 0.072 0.199 0.212 0.605 0.285 0.804 0.111-1.094 1.19-0.919 2.008-1.026 -0.228-0.208-0.45-0.421-0.673-0.629 0.484-0.116 0.973-0.237 1.457-0.368C178.752 191.847 178.873 191.571 178.936 191.436z"/><path fill="#727E83" d="M153.528 191.15c1.272-0.02 2.99-0.14 3.74 1.137 0.363 0.291 0.629 1.326 1.19 0.464 0.793 0.518 1.78 0.9 2.202 1.814 -0.324 0.043-0.973 0.136-1.297 0.179 0.077 0.165 0.232 0.499 0.31 0.663 -0.75-0.266-1.495-0.537-2.24-0.803l0.125 0.769C156.644 193.598 154.81 192.621 153.528 191.15z"/><path fill="#6B6E78" d="M157.268 192.287c0.44-0.353 0.885-0.711 1.326-1.064 0.489 0.401 0.973 0.818 1.5 1.166 0.445-0.184 0.876-0.402 1.282-0.658 0.363 0.61 0.866 1.123 1.505 1.442 0.257 0.126 0.76 0.377 1.011 0.508 0.247 0.658 0.494 1.321 0.736 1.984 -0.503-0.15-1.002-0.3-1.505-0.45 -0.136 0.179-0.407 0.532-0.542 0.711 -0.866-0.3-1.771-0.179-2.627 0.073 -0.068-0.146-0.213-0.44-0.281-0.59 -0.078-0.165-0.232-0.499-0.31-0.663 0.324-0.043 0.973-0.136 1.297-0.179 -0.421-0.915-1.408-1.296-2.202-1.814C157.897 193.613 157.631 192.578 157.268 192.287z"/><path fill="#666F75" d="M164.807 193.589c0.436-0.62 0.891-1.22 1.335-1.829 0.295 0.363 0.595 0.73 0.891 1.098 0.377-0.251 0.755-0.493 1.142-0.726 0.13 0.087 0.396 0.267 0.532 0.358 -0.546 0.929-0.924 1.945-1.088 3.015 -0.474-0.416-0.953-0.828-1.437-1.224C165.591 194.305 164.763 194.431 164.807 193.589z"/><path fill="#979FA2" d="M186.896 193.376c0.203-0.354 0.401-0.707 0.6-1.065 0.198 1.045 0.803 1.926 1.616 2.594 0.155-0.063 0.464-0.188 0.619-0.252 0.856-0.484 1.901-0.629 2.681 0.078 0.228-0.334 0.45-0.667 0.678-1.001 0.508 0.373 1.021 0.74 1.534 1.118 0.392-0.14 0.784-0.271 1.181-0.406 -0.266-0.237-0.527-0.47-0.789-0.702 0.745-0.251 1.485-0.508 2.216-0.798 -0.024 0.745-0.015 1.495 0.15 2.226 0.663-0.9 1.171-1.892 1.626-2.908 0.15 0.382 0.3 0.765 0.45 1.147 0.6-0.208 1.2-0.411 1.791-0.648 0.169 1.268 0.707 2.434 1.234 3.59 0.252-1.234 1.234-2.013 2.188-2.724 0.111 0.924 0.232 1.849 0.372 2.768 -1.722 0.678-3.576 0.896-5.303 1.553 -0.014-0.324-0.039-0.973-0.053-1.292 -0.126 0.131-0.373 0.392-0.493 0.523 -0.324 0.165-0.644 0.329-0.963 0.498 -0.672-0.421-1.359-0.817-2.051-1.205 0.043 0.537 0.087 1.074 0.13 1.611 -1.389 0.169-2.056-1.273-2.917-2.085 -0.01 0.469-0.024 0.938-0.034 1.413 -0.479 0.141-0.958 0.281-1.437 0.421 -0.223-0.203-0.672-0.605-0.895-0.803 -1.249 0.938-3.005 0.968-4.064-0.295 -0.087 0.339-0.174 0.677-0.256 1.021 -0.417-0.063-0.833-0.125-1.244-0.189 -0.281 0.605-0.562 1.215-0.842 1.824 -0.135-0.576-0.271-1.156-0.401-1.732 -0.484 0.373-0.968 0.745-1.452 1.113 -0.663-0.465-1.379-0.852-2.11-1.195 -0.116 0.174-0.343 0.518-0.459 0.687 -0.329-0.9-1.224-0.518-1.931-0.459 -0.102 0.184-0.305 0.552-0.402 0.736 -0.377 0.227-0.75 0.45-1.117 0.682 -0.068-0.3-0.199-0.9-0.267-1.2 -0.333 0.387-0.667 0.769-1.001 1.156 -0.885-0.048-1.766-0.072-2.646-0.072 -0.417-0.339-0.823-0.683-1.234-1.021 -0.735 0.063-1.466 0.15-2.187 0.305 -1.679-0.275-3.223-1.118-4.96-1.103 0.295-0.387 0.59-0.77 0.89-1.157 0.141 0.194 0.421 0.581 0.562 0.77 0.339-0.271 0.672-0.547 1.011-0.818 0.779 0.053 1.553 0.111 2.328 0.174 0.048-0.169 0.145-0.518 0.198-0.692 0.629 0.571 1.282 1.374 2.24 1.224 0.615-0.421 1.195-0.9 1.81-1.321 0.291 0.488 0.581 0.982 0.866 1.476 0.833-1.703 1.669 0.256 2.603 0.653 -0.034-0.711-0.174-1.422-0.082-2.129 0.494-0.3 1.011-0.552 1.524-0.813 -0.146 0.784-0.286 1.572-0.421 2.361 0.411-0.431 0.822-0.866 1.233-1.297 0.184 0.188 0.547 0.566 0.726 0.76 0.329-0.358 0.658-0.711 0.987-1.064 0.058 0.266 0.169 0.793 0.223 1.06 0.116-0.247 0.339-0.735 0.45-0.982 0.44 0.464 0.88 0.929 1.321 1.394 0.378-0.436 0.755-0.866 1.132-1.302 0.174 0.412 0.348 0.823 0.522 1.234 0.314-0.557 0.629-1.113 0.944-1.669 0.121 0.348 0.363 1.05 0.484 1.403C186.571 195.577 186.958 194.513 186.896 193.376z"/><path fill="#A2AAAD" d="M206.894 195.563c0.421-1.253 0.745-2.667 1.931-3.44 0.087 0.31 0.266 0.924 0.353 1.229 0.329-0.058 0.663-0.121 0.997-0.179 0.116 0.625 0.232 1.244 0.358 1.863 -1.684 0.968-3.629 1.036-5.492 1.355 0.174-0.314 0.523-0.948 0.697-1.263C206.12 195.268 206.507 195.417 206.894 195.563z"/><path fill="#96A1AD" d="M159.954 195.999c0.856-0.252 1.761-0.373 2.627-0.073 0.058 0.198 0.174 0.595 0.237 0.798 0.324 0.125 0.978 0.387 1.302 0.518C162.629 197.9 160.433 197.9 159.954 195.999z"/><path fill="#B9BFC1" d="M193.389 195.994c0.861 0.813 1.529 2.254 2.917 2.085 -0.043-0.537-0.087-1.074-0.13-1.611 0.692 0.387 1.379 0.784 2.051 1.205 0.319-0.169 0.639-0.333 0.963-0.498 0.121-0.131 0.367-0.392 0.493-0.523 0.015 0.319 0.039 0.968 0.053 1.292 -1.916 0.595-3.958 0.653-5.835 1.398 -1.583 0.639-3.295 0.644-4.955 0.919 -3.74 0.886-7.616 0.707-11.429 0.692 -2.913-0.324-5.579-1.674-8.463-2.124l0.354-0.445c0.721-0.155 1.451-0.242 2.187-0.305 0.412 0.338 0.818 0.682 1.234 1.021 0.88 0 1.761 0.024 2.646 0.072 0.334-0.387 0.668-0.77 1.001-1.156 0.068 0.3 0.198 0.9 0.267 1.2 0.368-0.232 0.74-0.455 1.117-0.682 0.097-0.184 0.3-0.552 0.402-0.736 0.707-0.058 1.602-0.44 1.931 0.459 0.116-0.169 0.344-0.513 0.459-0.687 0.731 0.344 1.447 0.73 2.11 1.195 0.484-0.368 0.968-0.74 1.452-1.113 0.131 0.576 0.266 1.156 0.401 1.732 0.281-0.609 0.562-1.219 0.842-1.824 0.411 0.063 0.827 0.126 1.244 0.189 0.082-0.344 0.169-0.682 0.256-1.021 1.06 1.263 2.816 1.234 4.064 0.295 0.223 0.198 0.672 0.6 0.895 0.803 0.479-0.141 0.958-0.281 1.437-0.421C193.365 196.932 193.379 196.463 193.389 195.994z"/></g></svg>